<svg width="816" height="816" viewBox="0 0 816 816" fill="none" xmlns="http://www.w3.org/2000/svg">
<rect width="816" height="816" rx="408" fill="#FED7AA"/>
<g clip-path="url(#clip0_17_998)">
<path d="M494.76 159.77C501.73 161.86 508.7 162.84 515.47 164.73C522.98 166.82 530.41 169.27 537.37 172.44C548.46 177.48 559.27 183.4 569.02 190.85C583.17 201.65 594.61 214.74 602.5 230.88C610.12 246.46 614.07 262.81 614.07 280.15C614.07 284.67 612.92 288.95 611.29 293.04C608.29 300.58 599.23 302.66 592.04 297.56C589.75 295.94 587.87 293.75 585.76 291.88C576.4 283.58 566.51 275.91 556.99 267.83C551.92 263.53 547.48 258.23 542.25 254.07C534.19 247.65 528.76 239.19 522.57 231.12C524.41 242.35 524.54 253.59 523.93 264.76C523.59 270.98 523.75 277.34 522.16 283.47C521.71 285.22 521.21 287 520.43 288.62C516.24 297.28 508.84 298.74 501.93 292.07C496.88 287.2 492.69 281.56 489.3 275.42C480.98 260.34 473.77 244.76 467.32 228.76C459.42 209.14 448.87 190.96 434.17 175.51C430.4 171.55 426.05 168.13 422.03 164.4C417.29 159.99 401.38 159.92 394.32 165.51C373.63 181.89 358.21 202.48 345.56 225.28C333.89 246.31 323.06 267.81 308.38 287.01C306.67 289.25 304.94 291.55 302.85 293.41C297.49 298.21 291.71 297.16 287.79 291.12C284.01 285.29 283.45 278.75 283.13 272.1C282.57 260.26 283.75 248.46 283.9 236.64C283.92 235.23 283.9 233.82 283.9 231.87C275.65 242.91 265.26 250.82 256.03 259.9C247.32 268.47 236.76 274.56 227.71 282.65C222.45 287.35 216.72 291.64 211.41 296.37C205.57 301.57 199.28 300.28 195.35 293.37C190.9 285.54 191.66 277.15 192.41 268.68C193.19 259.93 196.18 251.69 198.25 243.28C199.72 237.33 202.66 231.29 206.47 226.5C210.89 220.94 213.93 214.51 218.79 209.26C228.93 198.29 239.74 188.06 252.6 180.43C263.75 173.81 276.2 169.97 288.5 166C296.51 163.41 304.36 160.11 313.53 159.81C312.45 159.13 311.77 158.32 311.1 158.34C302.53 158.55 293.86 157.09 285.42 159.53C284.11 159.91 282.88 160.21 281.57 160.17C265.57 159.74 249.6 160.85 233.62 161.44C217.22 162.05 200.84 162.86 184.43 163.35C177.37 163.56 170.32 165.15 163.18 165.22C160.11 165.25 157.35 164.46 155.18 161.97C153.93 160.53 153.74 159.13 154.19 157.42C157.66 144.25 165.51 133.84 174.44 123.87C180.46 117.15 188.66 113.55 195.13 107.56C203.96 99.3901 215.43 96.0101 226.36 92.2101C240.52 87.2901 255.34 85.1401 270.38 83.6901C281.73 82.6001 292.84 85.7801 304.24 83.5901C303.16 80.7701 300.42 79.4301 298.06 77.8701C273.54 61.6601 248.31 46.7001 221.1 35.3501C217.71 33.9301 215.01 32.1101 214.85 27.8601C214.68 23.3901 217.99 21.8301 221.04 20.4401C228.69 16.9501 236.99 15.2801 245.19 14.2701C256.98 12.8201 268.93 12.1401 280.81 12.2301C293.54 12.3301 306.12 14.1601 318.73 16.6101C335.57 19.8801 351.08 25.8201 365.3 34.9801C384.74 47.5101 400.41 63.5901 409.23 85.4901C409.6 86.4001 410.17 87.2401 410.75 88.0401C411.21 88.6801 411.83 89.2101 412.49 89.9001C415.91 86.3601 417.47 81.8701 419.56 77.7801C424.9 67.3201 432.63 58.7801 440.62 50.4101C452.15 38.3301 465.82 29.1501 481.11 22.8301C489.26 19.4601 498.24 17.8701 506.99 16.2401C517.03 14.3701 527.18 13.0001 537.42 12.6101C555.94 11.9101 574.15 13.8001 591.66 20.2001C594.99 21.4201 598.56 23.3001 598.96 27.6201C599.34 31.7701 595.99 33.5201 593.08 34.8601C581.28 40.3101 569.59 45.9801 558.36 52.5301C551.25 56.6801 544.44 61.3501 537.51 65.8001C529.57 70.8901 521.68 76.0801 513.65 81.0301C512.34 81.8401 510.58 82.3701 510.96 83.9601C511.43 85.9201 513.44 84.8101 514.65 84.7101C525.4 83.8801 536.18 83.3701 546.92 84.1101C564.54 85.3301 581.57 89.3301 598.05 95.8501C602.69 97.6801 607.44 99.6901 611.56 102.06C622.31 108.25 632.76 115.16 641.44 124.32C649.33 132.64 657.03 141 661.14 152.03C664.69 161.59 661.71 166.2 651.65 166.18C638.76 166.16 626.12 163.25 613.21 163.07C596.11 162.83 579 161.79 561.93 160.9C543.53 159.94 525.11 159.1 506.7 158.28C502.76 158.11 498.73 157.78 494.76 159.81V159.77Z" fill="#5EEAD4"/>
<path d="M688.46 782.15C591.49 782.22 494.51 782.33 397.54 782.35C301.56 782.37 205.59 782.3 109.61 782.27C92.12 782.27 74.63 783.26 57.16 782.04C49.96 781.53 44.97 776.05 44.97 768.98C44.97 761.23 49.74 755.18 57.14 755.04C81.1 754.6 105.07 754.58 129.04 754.43C129.51 754.43 129.99 754.71 130.45 754.85C130.93 756.43 132.16 755.83 133.2 755.78C135.16 755.03 135.73 754.2 134.73 751.85C131.26 743.76 128.35 735.5 126.7 726.74C121.77 700.48 127.14 676.5 141.66 654.32C150.53 640.77 162.04 629.95 176.26 622.38C185.05 617.7 194.51 614.22 204.55 612.9C211.37 612 218.11 610.33 225.08 610.87C253.27 613.05 277.16 623.48 295.6 645.76C308.76 661.65 316.19 679.9 318.8 699.86C320.73 714.59 318.19 729.32 312.39 743.28C310.9 746.87 310.01 750.71 308.76 754.69H356.08C346.78 749.15 338.13 743.96 329.44 738.85C327.79 737.88 326.56 737 326.95 734.73C327.97 728.78 328.66 722.78 329.18 716.75C329.49 713.07 332.19 713.8 334.66 715.25C344.62 721.11 354.95 726.26 365.8 730.2C384.01 736.81 402.62 738.64 421.8 734.55C437.19 731.26 451.54 725.69 464.91 717.44C467.03 716.13 469.41 715.28 471.56 714.02C474.64 712.22 476.41 712.9 476.78 716.51C477.09 719.45 478.01 722.21 478.89 725.01C480.01 728.56 481.94 732.69 480.99 735.79C480.2 738.36 475.66 739.7 472.94 741.79C466.66 746.6 460.52 751.61 452.58 753.49C453.13 754.51 453.63 754.8 455.21 754.39C461.01 752.89 466.83 755.08 472.76 754.67C481.03 754.1 489.38 754.67 497.69 754.98C501.37 755.12 501.67 753.98 499.95 751.09C494.27 741.58 491.03 730.82 490.45 720.21C489.64 705.38 490.01 690.5 495.32 675.79C502.92 654.74 516.2 638.51 533.43 625.36C543.88 617.38 556.48 613.48 569.67 611.81C597.23 608.32 621.63 616.02 643.19 632.9C661.22 647.01 672.75 665.45 677.14 688.07C681.34 709.74 679.26 730.78 670.43 751.08C669.47 753.29 670.22 754.11 672.45 754.13C677.45 754.18 682.44 754.28 687.44 754.36L687.45 754.59L687.5 754.36C704.75 754.54 722.01 754.48 739.25 755C746.45 755.22 750.55 758.85 751.9 767.79C752.89 774.37 749.68 778.7 742.99 781.1C739.67 782.29 736.35 782.85 732.86 782.79C718.08 782.57 703.29 782.38 688.51 782.18H688.49L688.46 782.15ZM155.94 713.46C155.62 726.3 163.14 740.63 174.86 753.15C175.6 753.94 175.98 755.05 177.87 755.04C207.5 754.86 237.14 754.92 266.77 754.9C268.05 754.9 269.64 755.41 270.45 754.03C273.88 748.19 279.03 743.46 281.55 737.06C286.89 723.51 289.21 709.69 286.05 695.14C280.89 671.37 268.16 654.23 244.62 645.96C240.41 644.48 236.07 644.28 231.8 643.39C216.33 640.18 201.29 640.98 187.84 649.91C166.99 663.76 155.86 683.21 155.93 713.46H155.94ZM584.48 755.05C584.48 755.05 584.48 754.95 584.48 754.9C598.29 754.9 612.09 754.88 625.9 754.93C627.93 754.93 630.58 755.17 631.37 753.48C634.42 746.9 640.27 742.18 642.83 735.26C648.41 720.14 651.1 704.94 646.09 689.1C640.64 671.87 630.76 657.8 614.49 649.71C603.77 644.38 592.12 641.43 579.61 641.82C562.86 642.35 549.07 648.61 537.56 660.32C525.01 673.08 519.35 688.7 519.21 706.47C519.13 716.33 521.47 725.56 525.09 734.73C528.14 742.45 535.32 747.24 538.13 754.95C538.5 755.97 539.08 755.11 539.6 755.1C554.57 755.05 569.53 755.06 584.5 755.06L584.48 755.05Z" fill="#134E4A"/>
<path d="M295.69 387.64C317.29 387.53 338.88 387.42 360.48 387.31L360.49 387.53L360.51 387.31C361.51 387.31 362.5 387.31 363.5 387.31V387.53L363.52 387.31C366.5 387.17 369.49 387.03 372.73 386.88C371.74 380.01 372.42 373.26 372.12 366.53C371.99 363.65 372.7 362.5 375.87 362.31C387.4 361.6 398.22 364.59 408.99 368.02C410.22 368.41 411.43 368.85 412.67 369.23C418.183 370.93 420.93 374.67 420.91 380.45C420.89 387.64 420.89 387.59 427.94 387.59C460.26 387.61 492.58 387.69 524.89 387.69C541.17 387.69 556.26 391.93 568.82 402.28C582.12 413.25 589.55 427.79 589.62 445.32C589.73 471.31 590.24 497.33 589.1 523.27C587.96 549.09 570.57 573.67 540.93 578.81C532.37 580.29 523.31 578.98 514.48 578.9C499.17 578.76 483.85 578.58 468.54 578.42L468.33 578.4C467.27 578.45 466.21 578.51 465.16 578.56C465.03 578.56 464.9 578.56 464.77 578.57C464.9 578.55 465.03 578.53 465.16 578.51C471.97 583.69 478.26 589.26 488.15 587.96C496 586.92 504.11 587.98 512.1 587.79C517.18 587.67 520.44 590.19 521.89 594.51C524.84 603.31 523.73 610.1 511.81 612.01C503.48 613.35 495.31 611.83 487.07 611.24C485.63 611.14 483.1 609.75 483.05 613.06C482.9 621.76 478.23 628.74 473.75 635.49C464.78 648.99 452.99 659.69 438.33 666.78C426.35 672.57 413.64 676.15 400.19 675.94C391.05 675.8 382.09 673.89 373.77 670.2C366.7 667.06 359.69 663.72 353.25 659.14C338.96 648.98 328.73 635.77 322.09 619.73C318.9 612.03 319.16 611.92 310.75 611.96C305.09 611.98 299.43 612.03 293.76 612.04C288.13 612.05 283.45 609.29 281.85 605.05C279.88 599.84 281.53 592.37 285.22 589.04C286.91 587.51 288.9 587.61 290.85 587.62C299.67 587.65 308.5 587.71 317.32 587.92C320.71 588 323.54 587.46 326.47 585.29C329.53 583.02 333.47 581.94 337.28 580.22C335.72 578.25 333.78 579.06 332.17 579.06C308.69 578.99 285.2 579.38 261.74 578.85C247.78 578.54 236.55 571.58 227.37 561.27C223.04 556.4 219.37 551.16 216.61 545.17C214.31 540.18 213.04 535.13 213.04 529.7C213.06 498.06 212.63 466.42 213.32 434.8C213.61 421.23 221.01 410.26 231.32 401.61C243.03 391.79 256.82 387.77 271.98 387.95C277.46 388.02 282.95 387.79 288.42 387.69H288.64C290.88 387.69 293.11 387.69 295.34 387.69L295.67 387.67L295.69 387.64ZM398.14 416.96C398.14 416.96 398.14 416.89 398.14 416.85C356 416.85 313.85 416.82 271.71 416.9C268.32 416.9 264.9 416.57 261.54 418.26C250.43 423.86 244.91 432.53 245.01 445.13C245.22 472.62 245.48 500.12 244.91 527.6C244.7 537.81 254.46 547.44 262.5 550.01C270.6 552.59 278.82 551.64 287.01 551.65C365.15 551.72 443.29 551.8 521.44 551.73C527.44 551.73 533.54 550.88 539.1 548.25C553.57 541.41 559.06 528.65 559.43 513.91C560 491.31 560.02 468.68 559.12 446.05C558.67 434.81 548.13 421.04 538.13 418.65C533.79 417.61 529.52 416.95 525.08 416.95C482.76 416.97 440.44 416.96 398.12 416.96H398.14ZM402.51 634.91C412.05 635.87 421.55 624.11 421.07 614.95C420.47 603.5 412.85 595.93 400.78 596.02C391.34 596.08 382.88 605.48 383.08 616.04C383.23 624.05 391.41 635.91 402.51 634.92V634.91Z" fill="#134E4A"/>
<path d="M420.03 284.89C419.97 294.14 420.34 303.4 419.12 312.64C418.76 315.38 418.09 315.8 415.78 314.41C411.88 312.05 407.64 310.18 403.98 307.52C396.11 301.8 386.91 300.53 377.76 299.23C374.68 298.79 373.62 297.77 373.99 294.9C375.15 285.86 376.03 276.77 377.58 267.8C378.4 263.05 377.76 258.32 378.57 253.54C379.29 249.35 381.45 249.64 383.97 250.03C393.34 251.48 402.19 254.33 410.9 258.37C418.93 262.1 421.25 267.35 420.09 275.43C419.64 278.53 420.02 281.74 420.02 284.9L420.03 284.89Z" fill="#134E4A"/>
<path d="M371.97 334.08C372.41 326.18 371.46 318.28 372.77 310.32C373.34 306.83 374.72 306.78 377.12 306.98C388.78 307.96 398.82 313.13 409.05 318.39C418.19 323.09 419.72 330.52 420.09 339.32C420.42 347.06 419.48 354.8 420.75 362.56C421.18 365.17 418.35 364.15 417.24 363.62C412.11 361.17 406.67 359.7 401.3 357.98C392.61 355.21 383.69 354.18 374.66 354.33C372.16 354.37 371.76 354.02 371.88 351.54C372.16 345.73 371.97 339.9 371.98 334.08H371.97Z" fill="#134E4A"/>
<path d="M423.79 201.45C422.81 202.9 423.05 204.44 423.08 205.91C423.37 221.45 420.35 236.83 420.91 252.39C421.12 258.06 417.39 254.32 416.17 253.59C409.12 249.39 401.76 245.94 393.9 243.65C389.73 242.43 383.8 243.16 381.68 240.07C379.48 236.87 382.31 231.61 383.06 227.28C384.56 218.64 387.32 210.24 388.08 201.44C388.28 199.12 390.4 200.05 391.67 200.06C402.24 200.14 412.86 199.25 423.79 201.45Z" fill="#134E4A"/>
<path d="M133.2 755.77C132.16 755.82 130.93 756.43 130.45 754.84C131.82 753.8 132.76 754.03 133.2 755.77Z" fill="#00A4A7"/>
<path d="M465.17 578.5C465.04 578.52 464.91 578.54 464.78 578.56C464.91 578.56 465.04 578.56 465.17 578.55V578.5Z" fill="#134E4A"/>
<path d="M363.53 387.31L363.5 387.53V387.31H363.53Z" fill="#134E4A"/>
<path d="M687.48 754.34L687.44 754.56L687.42 754.33L687.48 754.34Z" fill="#00A4A7"/>
<path d="M360.51 387.32L360.49 387.53L360.48 387.32H360.51Z" fill="#134E4A"/>
<path d="M688.46 782.15H688.48L688.46 782.34V782.15Z" fill="#00A4A7"/>
<path d="M295.69 387.64C295.69 387.64 295.35 387.66 295.36 387.66C295.37 387.66 295.52 387.37 295.52 387.37L295.69 387.65V387.64Z" fill="#00A4A7"/>
<path d="M288.66 387.66C288.66 387.66 288.43 387.66 288.44 387.66L288.54 387.37L288.66 387.66Z" fill="#00A4A7"/>
<path d="M468.34 578.39L468.55 578.41L468.42 578.63L468.34 578.39Z" fill="#134E4A"/>
<path d="M219.49 748.01C196.47 748.5 177.91 729.46 176.99 707.89C175.85 681.32 196.43 662.02 218.73 660.94C245.71 659.64 266.59 679.03 266.87 704.78C267.12 728.11 248.92 748.52 219.5 748.01H219.49ZM221.79 684C208.36 684.06 199.16 693.17 199.05 706.19C198.96 716.41 208.75 728.91 221.09 728C234.26 727.02 241.73 717.19 241.48 703.9C241.25 691.73 231.62 682.41 221.79 684Z" fill="#134E4A"/>
<path d="M581.71 660.9C610.63 660.86 627.55 681.52 627.59 706.74C627.63 733.91 608.48 746.74 582.81 748.78C559.19 750.66 540.36 730.6 538.85 708.69C536.97 681.44 559.7 659.91 581.71 660.89V660.9ZM601.93 705.62C603.3 691.67 591.6 683.26 579.97 683.03C571.26 682.86 560.88 695.14 561.13 705.68C561.39 716.85 570.4 727.84 582.2 727.86C593.56 727.88 601.91 718.4 601.93 705.62Z" fill="#134E4A"/>
<path d="M542.97 488.77C544.24 503.6 537.68 515.62 527.56 525.09C516.39 535.55 502.34 539.07 486.96 536.22C465.32 532.21 452.13 518.92 445.91 498.43C437.26 469.94 456.24 439.8 484.18 434.95C513.03 429.95 538.45 447.66 542.2 477.48C542.68 481.27 542.93 485.01 542.97 488.77ZM492.83 514.95C504.42 515.88 512.56 506.03 512.95 494.75C513.34 483.6 503.35 473.14 491.74 473.35C482.77 473.52 471.99 481.23 472.04 494.03C472.08 504.24 482.69 514.93 492.83 514.95Z" fill="#134E4A"/>
<path d="M258.95 489.18C259.08 477.59 259.32 468.16 263.69 459.25C270.29 445.8 280.6 437.39 295.45 435.01C322.97 430.61 346.97 448 353.85 473.72C358.27 490.22 351.36 512.88 336.89 525.09C314.12 544.28 279.15 540 263.67 512.87C259.27 505.16 258.38 496.11 258.96 489.18H258.95ZM325 494.29C325.06 482.48 317.08 474.09 305.73 474.04C294.71 474 286.56 482.64 285.88 493.73C285.31 503.1 296.72 515.11 305.48 515.1C316.64 515.1 325.95 504.46 325 494.28V494.29Z" fill="#134E4A"/>
</g>
<defs>
<clipPath id="clip0_17_998">
<rect width="709" height="771" fill="white" transform="translate(44 12)"/>
</clipPath>
</defs>
</svg>
